<svg xmlns="http://www.w3.org/2000/svg" xmlns:xlink="http://www.w3.org/1999/xlink" viewBox="0 0 81 71" fill="white" fill-rule="evenodd"><use xlink:href="#B" x=".5"/><defs><linearGradient id="A" x1="50%" y1="0%" x2="50%" y2="100%"><stop offset="0%" stop-color="#4387fd"/><stop offset="100%" stop-color="#4683ea"/></linearGradient></defs><symbol id="B" overflow="visible"><path d="M79.25 37.5q1.5-2.5 0-5L61.5 2q-1.5-2-4-2h-35q-2.5 0-4 2L.75 32.5q-1.5 2.5 0 5L18.5 68q1.5 2 4 2h35q2.5 0 4-2z" fill="url(#A)"/><path d="M74 46.666L61.584 68q-1.5 2-4 2h-3.75l-23-23 .25-3.75-5.75-5.75-.5-2.75.75-1.75h4.25l9.5 9.5V40l-2.75-2.75.25-4-5.75-5.75-.5-3 1.5-1.75 3.5.25 4 4 2-10.5 6.5 6.5 1.75-.5z" fill="#000" fill-opacity=".07"/><path d="M29.75 44.75c0-1.8 1.45-3.25 3.25-3.25s3.25 1.45 3.25 3.25S34.8 48 33 48s-3.25-1.45-3.25-3.25zm1.5 0c0-.97.78-1.75 1.75-1.75s1.75.78 1.75 1.75-.78 1.75-1.75 1.75-1.75-.78-1.75-1.75zM24 35c0-1.8 1.45-3.25 3.25-3.25S30.5 33.2 30.5 35s-1.45 3.25-3.25 3.25S24 36.8 24 35zm1.5 0c0-.97.78-1.75 1.75-1.75S29 34.03 29 35s-.78 1.75-1.75 1.75-1.75-.78-1.75-1.75zm4.25-10c0-1.8 1.45-3.25 3.25-3.25s3.25 1.45 3.25 3.25-1.45 3.25-3.25 3.25-3.25-1.45-3.25-3.25zm1.5 0c0-.97.78-1.75 1.75-1.75s1.75.78 1.75 1.75-.78 1.75-1.75 1.75-1.75-.78-1.75-1.75zm7.25 7.25c-1.8 0-3 1-3 3 0 1.5 1.2 3 3 3V54h3v-6h4.25q.75 0 .75-.75v-4.5q0-.75-.75-.75H41.5v-3.75H57q.75 0 .75-.75V33q0-.75-.75-.75H41.5V28.5H49q.75 0 .75-.75v-5q0-.75-.75-.75h-7.5v-5.5h-3zm0 4.5c-.97 0-1.5-.75-1.5-1.5 0-1.25.53-1.5 1.5-1.5z"/></symbol></svg>